<?xml version="1.0" encoding="iso-8859-1"?>
<!-- Generator: Adobe Illustrator 17.1.0, SVG Export Plug-In . SVG Version: 6.00 Build 0)  -->
<!DOCTYPE svg PUBLIC "-//W3C//DTD SVG 1.1//EN" "http://www.w3.org/Graphics/SVG/1.1/DTD/svg11.dtd">
<svg version="1.1" xmlns="http://www.w3.org/2000/svg" xmlns:xlink="http://www.w3.org/1999/xlink" x="0px" y="0px"
	 viewBox="0 0 220.977 98.63" style="enable-background:new 0 0 220.977 98.63;" xml:space="preserve">
<g id="Guides">
</g>
<g id="alabs_outlined">
	<g>
		<g>
			<path style="fill:#4274B9;" d="M27.445,58.561l-2.33,0.089c-0.119-0.483-0.178-0.942-0.178-1.377h-0.148
				c-1.217,1.105-2.874,1.658-4.972,1.658c-1.138,0-2.118-0.333-2.938-0.999c-0.822-0.667-1.232-1.616-1.232-2.85
				c0-1.521,0.643-2.742,1.929-3.665c1.286-0.923,3.676-1.409,7.168-1.458c0.03-0.237,0.044-0.509,0.044-0.814
				c0-1.215-0.324-2.024-0.972-2.429c-0.648-0.404-1.63-0.606-2.946-0.606c-1.554,0-3.082,0.192-4.586,0.577l0.252-2.044
				c1.484-0.424,3.191-0.637,5.121-0.637c1.761,0,3.122,0.363,4.082,1.089c0.959,0.726,1.439,1.962,1.439,3.709
				c0,0.464-0.022,1.306-0.067,2.524c-0.044,1.22-0.067,2.031-0.067,2.436C27.044,55.56,27.178,57.159,27.445,58.561z
				 M24.818,55.688c-0.05-1.501-0.074-2.849-0.074-4.043c-1.86,0-3.275,0.139-4.245,0.415c-1.623,0.493-2.434,1.437-2.434,2.828
				c0,1.343,0.95,2.014,2.85,2.014C22.548,56.902,23.849,56.497,24.818,55.688z"/>
			<path style="fill:#4274B9;" d="M43.934,58.561h-3.488c0-0.346-0.96-1.663-2.879-3.953c-1.969-2.359-3.206-3.539-3.71-3.539
				h-0.104c0,2.112,0.054,4.61,0.163,7.492h-2.612c0.128-3.613,0.193-7.295,0.193-11.046c0-3.82-0.144-7.083-0.431-9.787l2.85-0.148
				c-0.109,2.132-0.163,6.273-0.163,12.423h0.104c0.326,0,1.353-0.831,3.08-2.495c1.726-1.663,2.589-2.667,2.589-3.013h3.28
				c0,0.316-0.777,1.135-2.33,2.458c-1.455,1.233-2.786,2.25-3.993,3.05v0.119c1.227,0.928,2.805,2.517,4.735,4.768
				C43.029,57.011,43.934,58.234,43.934,58.561z"/>
			<path style="fill:#4274B9;" d="M58.775,58.561h-3.488c0-0.346-0.96-1.663-2.879-3.953c-1.969-2.359-3.206-3.539-3.71-3.539
				h-0.104c0,2.112,0.054,4.61,0.163,7.492h-2.612c0.128-3.613,0.193-7.295,0.193-11.046c0-3.82-0.144-7.083-0.431-9.787l2.85-0.148
				c-0.109,2.132-0.163,6.273-0.163,12.423h0.104c0.326,0,1.353-0.831,3.08-2.495c1.726-1.663,2.589-2.667,2.589-3.013h3.28
				c0,0.316-0.777,1.135-2.33,2.458c-1.455,1.233-2.786,2.25-3.993,3.05v0.119c1.227,0.928,2.805,2.517,4.735,4.768
				C57.87,57.011,58.775,58.234,58.775,58.561z"/>
			<path style="fill:#4274B9;" d="M72.044,58.561l-2.33,0.089c-0.119-0.483-0.178-0.942-0.178-1.377h-0.148
				c-1.217,1.105-2.874,1.658-4.972,1.658c-1.138,0-2.118-0.333-2.938-0.999c-0.822-0.667-1.232-1.616-1.232-2.85
				c0-1.521,0.643-2.742,1.929-3.665c1.286-0.923,3.676-1.409,7.168-1.458c0.03-0.237,0.044-0.509,0.044-0.814
				c0-1.215-0.324-2.024-0.972-2.429c-0.648-0.404-1.63-0.606-2.946-0.606c-1.554,0-3.082,0.192-4.586,0.577l0.252-2.044
				c1.484-0.424,3.191-0.637,5.121-0.637c1.761,0,3.122,0.363,4.082,1.089c0.959,0.726,1.439,1.962,1.439,3.709
				c0,0.464-0.022,1.306-0.067,2.524c-0.045,1.22-0.067,2.031-0.067,2.436C71.643,55.56,71.777,57.159,72.044,58.561z
				 M69.417,55.688c-0.05-1.501-0.074-2.849-0.074-4.043c-1.86,0-3.275,0.139-4.245,0.415c-1.623,0.493-2.434,1.437-2.434,2.828
				c0,1.343,0.95,2.014,2.85,2.014C67.146,56.902,68.447,56.497,69.417,55.688z"/>
			<path style="fill:#4274B9;" d="M88.607,58.546l-2.211,0.074c-0.079-0.425-0.119-0.874-0.119-1.348h-0.164
				c-1.039,1.125-2.582,1.688-4.63,1.688c-1.88,0-3.376-0.681-4.489-2.043c-1.113-1.362-1.67-3.006-1.67-4.931
				c0-2.182,0.618-4.062,1.855-5.642c1.236-1.579,2.978-2.369,5.224-2.369c1.603,0,2.751,0.326,3.443,0.977h0.119
				c0-2.448-0.069-4.851-0.208-7.211l2.82-0.104c-0.188,2.507-0.282,5.789-0.282,9.847C88.295,51.611,88.399,55.298,88.607,58.546z
				 M86.217,55.629c0-3.07-0.084-6.026-0.252-8.869c-0.801-0.661-1.801-0.992-2.998-0.992c-1.672,0-2.924,0.555-3.755,1.666
				c-0.831,1.11-1.247,2.505-1.247,4.183c0,1.5,0.394,2.764,1.18,3.79c0.787,1.027,1.878,1.54,3.272,1.54
				C84.169,56.946,85.436,56.508,86.217,55.629z"/>
			<path style="fill:#4274B9;" d="M95.226,58.561H92.54c0.139-1.975,0.208-4.229,0.208-6.767c0-2.853-0.173-5.247-0.52-7.182
				l2.968-0.399c-0.119,2.064-0.178,4.59-0.178,7.581C95.018,54.163,95.087,56.419,95.226,58.561z M95.849,40.052
				c0,0.504-0.163,0.94-0.49,1.311c-0.326,0.37-0.787,0.556-1.38,0.556c-0.505,0-0.898-0.161-1.18-0.481
				c-0.282-0.321-0.423-0.708-0.423-1.162c0-0.494,0.168-0.923,0.504-1.289c0.336-0.364,0.802-0.548,1.395-0.548
				c0.485,0,0.869,0.161,1.15,0.481C95.709,39.24,95.849,39.617,95.849,40.052z"/>
			<path style="fill:#4274B9;" d="M110.305,58.561l-2.33,0.089c-0.119-0.483-0.178-0.942-0.178-1.377h-0.148
				c-1.217,1.105-2.874,1.658-4.972,1.658c-1.138,0-2.118-0.333-2.938-0.999c-0.822-0.667-1.232-1.616-1.232-2.85
				c0-1.521,0.643-2.742,1.929-3.665c1.286-0.923,3.676-1.409,7.168-1.458c0.03-0.237,0.044-0.509,0.044-0.814
				c0-1.215-0.324-2.024-0.972-2.429c-0.648-0.404-1.63-0.606-2.946-0.606c-1.554,0-3.082,0.192-4.586,0.577l0.252-2.044
				c1.484-0.424,3.191-0.637,5.121-0.637c1.761,0,3.122,0.363,4.082,1.089c0.959,0.726,1.439,1.962,1.439,3.709
				c0,0.464-0.022,1.306-0.067,2.524c-0.044,1.22-0.067,2.031-0.067,2.436C109.904,55.56,110.038,57.159,110.305,58.561z
				 M107.678,55.688c-0.05-1.501-0.074-2.849-0.074-4.043c-1.86,0-3.275,0.139-4.245,0.415c-1.623,0.493-2.434,1.437-2.434,2.828
				c0,1.343,0.95,2.014,2.85,2.014C105.407,56.902,106.708,56.497,107.678,55.688z"/>
			<path style="fill:#4274B9;" d="M126.645,58.561h-2.701c0.217-2.596,0.327-5.429,0.327-8.499c0-1.521-0.31-2.56-0.928-3.117
				c-0.619-0.558-1.502-0.836-2.649-0.836c-1.405,0-2.701,0.508-3.888,1.524c0,3.366,0.02,7.009,0.059,10.928h-2.701
				c0.168-3.356,0.252-5.784,0.252-7.285c0-2.31-0.218-4.551-0.653-6.723l2.612-0.37l0.282,1.807h0.119
				c1.464-1.322,3.033-1.984,4.705-1.984c1.643,0,2.914,0.363,3.814,1.089c0.9,0.726,1.351,2.017,1.351,3.872
				c0,0.188-0.01,0.558-0.03,1.11c-0.02,0.553-0.03,0.923-0.03,1.11C126.586,52.835,126.605,55.293,126.645,58.561z"/>
		</g>
		<g>
			<rect x="195.506" y="30.449" style="fill:#68BE62;" width="2.88" height="37.263"/>
			<rect x="201.986" y="30.449" style="fill:#68BE62;" width="2.88" height="37.263"/>
			<g>
				<path style="fill:#68BE62;" d="M149.251,52.061c-1.623,0.493-2.434,1.437-2.434,2.828c0,1.343,0.95,2.014,2.85,2.014
					c1.633,0,2.934-0.405,3.903-1.214c-0.05-1.501-0.074-2.849-0.074-4.043C151.635,51.646,150.22,51.784,149.251,52.061z"/>
				<path style="fill:#68BE62;" d="M132.47,30.47v37.242h59.437V30.47H132.47z M140.954,58.561h-2.849
					c0.178-3.258,0.267-6.939,0.267-11.046c0-3.988-0.144-7.25-0.431-9.787l3.013-0.148c-0.188,2.685-0.282,5.997-0.282,9.935
					C140.672,51.571,140.766,55.254,140.954,58.561z M153.866,58.649c-0.119-0.483-0.178-0.942-0.178-1.377h-0.148
					c-1.217,1.105-2.874,1.658-4.972,1.658c-1.138,0-2.118-0.333-2.939-0.999c-0.822-0.667-1.232-1.616-1.232-2.85
					c0-1.521,0.643-2.742,1.929-3.665c1.286-0.923,3.676-1.409,7.168-1.458c0.03-0.237,0.044-0.509,0.044-0.814
					c0-1.215-0.324-2.024-0.972-2.429c-0.648-0.404-1.63-0.606-2.946-0.606c-1.554,0-3.082,0.192-4.586,0.577l0.252-2.044
					c1.484-0.424,3.191-0.637,5.121-0.637c1.761,0,3.122,0.363,4.082,1.089c0.959,0.726,1.439,1.962,1.439,3.709
					c0,0.464-0.022,1.306-0.067,2.524c-0.044,1.22-0.067,2.031-0.067,2.436c0,1.797,0.134,3.396,0.401,4.798L153.866,58.649z
					 M171.572,56.576c-1.237,1.59-2.929,2.384-5.076,2.384c-1.821,0-3.057-0.325-3.71-0.977h-0.119l-0.371,0.577h-2.182
					c0.128-3.405,0.193-7.088,0.193-11.046c0-3.573-0.163-6.836-0.49-9.787l2.938-0.148c-0.099,1.698-0.148,4.388-0.148,8.069h0.119
					c0.969-1.115,2.508-1.673,4.616-1.673c1.83,0,3.302,0.682,4.415,2.044c1.113,1.361,1.67,3.005,1.67,4.931
					C173.427,53.111,172.809,54.987,171.572,56.576z M180.744,58.871c-1.633,0-3.156-0.162-4.571-0.488l0.46-2.177
					c1.286,0.494,2.681,0.74,4.186,0.74c2.157,0,3.235-0.611,3.235-1.836c0-0.592-0.24-1.063-0.72-1.414
					c-0.48-0.35-1.274-0.742-2.382-1.177c-1.405-0.553-2.424-1.086-3.057-1.6c-0.93-0.76-1.395-1.678-1.395-2.754
					c0-1.125,0.425-2.09,1.276-2.895c0.851-0.805,2.147-1.207,3.888-1.207c1.702,0,3.067,0.144,4.096,0.43l-0.46,2.132
					c-1.068-0.424-2.306-0.637-3.71-0.637c-1.899,0-2.85,0.548-2.85,1.644c0,0.553,0.213,1,0.638,1.34
					c0.425,0.341,1.256,0.753,2.494,1.236c1.335,0.523,2.325,1.037,2.968,1.54c0.959,0.78,1.439,1.713,1.439,2.799
					C186.28,57.431,184.435,58.871,180.744,58.871z"/>
				<path style="fill:#68BE62;" d="M166.378,45.989c-1.781,0-3.058,0.538-3.829,1.614c0,3.515,0.079,6.362,0.237,8.544
					c0.802,0.671,1.845,1.007,3.132,1.007c1.623,0,2.839-0.568,3.651-1.703c0.811-1.135,1.217-2.518,1.217-4.146
					c0-1.49-0.391-2.748-1.172-3.775C168.831,46.503,167.753,45.989,166.378,45.989z"/>
			</g>
		</g>
	</g>
</g>
</svg>
