<?xml version="1.0" encoding="iso-8859-1"?>
<!-- Generator: Adobe Illustrator 17.1.0, SVG Export Plug-In . SVG Version: 6.00 Build 0)  -->
<!DOCTYPE svg PUBLIC "-//W3C//DTD SVG 1.1//EN" "http://www.w3.org/Graphics/SVG/1.1/DTD/svg11.dtd">
<svg version="1.1" id="Layer_1" xmlns="http://www.w3.org/2000/svg" xmlns:xlink="http://www.w3.org/1999/xlink" x="0px" y="0px"
	 viewBox="0 0 1052 1052" style="enable-background:new 0 0 1052 1052;" xml:space="preserve">
<g id="Mindframe">
	
		<image style="overflow:visible;opacity:0.5;" width="1012" height="1014" xlink:href="41A8ADA9BB6F5C52.png"  transform="matrix(1 0 0 1 20.1456 7.1456)">
	</image>
	<g>
		<g>
			<g>
				<path style="fill:none;stroke:#FFFFFF;stroke-width:8.5176;stroke-miterlimit:10;" d="M303.586,479.134
					c2.507,0.115,5.021,0.208,7.541,0.28"/>
				
					<rect x="87.171" y="68.942" style="fill:#FFFFFF;stroke:#FFFFFF;stroke-width:2.4883;stroke-miterlimit:10;" width="875.171" height="877.851"/>
				<g>
					<g>
						
							<linearGradient id="SVGID_1_" gradientUnits="userSpaceOnUse" x1="737.4496" y1="331.0681" x2="310.279" y2="758.2386" gradientTransform="matrix(1 0 0 -1 0 1052)">
							<stop  offset="0" style="stop-color:#1C6A95"/>
							<stop  offset="1" style="stop-color:#3099D5"/>
						</linearGradient>
						<path style="fill:url(#SVGID_1_);" d="M478.394,715.839l-98.497-327.142h-2.517c3.542,66.554,5.316,110.949,5.316,133.196
							v193.947h-77.51V298.855h118.082l96.818,318.87h1.68l102.693-318.87h118.083v416.984h-80.869V518.47
							c0-9.314,0.139-20.059,0.42-32.23c0.28-12.167,1.539-44.493,3.778-96.973h-2.519L557.862,715.839H478.394z"/>
					</g>
				</g>
				<g>
					
						<linearGradient id="SVGID_2_" gradientUnits="userSpaceOnUse" x1="254.3693" y1="1202.4806" x2="718.1101" y2="738.7398" gradientTransform="matrix(1 0 0 -1 0 1052)">
						<stop  offset="0" style="stop-color:#3099D5"/>
						<stop  offset="0.4077" style="stop-color:#2F97D3"/>
						<stop  offset="0.575" style="stop-color:#2D92CC"/>
						<stop  offset="0.6983" style="stop-color:#2989C0"/>
						<stop  offset="0.8" style="stop-color:#237CAE"/>
						<stop  offset="0.8882" style="stop-color:#1C6B97"/>
						<stop  offset="0.966" style="stop-color:#13567C"/>
						<stop  offset="1" style="stop-color:#0E4B6D"/>
					</linearGradient>
					<path style="fill:url(#SVGID_2_);" d="M910.131,11.664H128.732c-53.429,0-96.259,48.845-96.259,109.065v0.511h877.658V11.664z"
						/>
				</g>
				<g>
					
						<linearGradient id="SVGID_3_" gradientUnits="userSpaceOnUse" x1="-1398.6768" y1="1293.6002" x2="-933.8804" y2="828.804" gradientTransform="matrix(4.489700e-11 1 1 -4.489700e-11 -112.0307 1632.5265)">
						<stop  offset="0" style="stop-color:#3099D5"/>
						<stop  offset="0.4077" style="stop-color:#2F97D3"/>
						<stop  offset="0.575" style="stop-color:#2D92CC"/>
						<stop  offset="0.6983" style="stop-color:#2989C0"/>
						<stop  offset="0.8" style="stop-color:#237CAE"/>
						<stop  offset="0.8882" style="stop-color:#1C6B97"/>
						<stop  offset="0.966" style="stop-color:#13567C"/>
						<stop  offset="1" style="stop-color:#0E4B6D"/>
					</linearGradient>
					<path style="fill:url(#SVGID_3_);" d="M1019.527,890.76V108.7c0-53.517-48.849-97.036-108.971-97.036h-1.668V890.76H1019.527z"
						/>
				</g>
				<g>
					
						<linearGradient id="SVGID_4_" gradientUnits="userSpaceOnUse" x1="-196.1102" y1="-1540.5391" x2="268.2458" y2="-2004.8953" gradientTransform="matrix(-4.489700e-11 -1 -1 4.489700e-11 -1670.6008 581.9105)">
						<stop  offset="0" style="stop-color:#3099D5"/>
						<stop  offset="0.4077" style="stop-color:#2F97D3"/>
						<stop  offset="0.575" style="stop-color:#2D92CC"/>
						<stop  offset="0.6983" style="stop-color:#2989C0"/>
						<stop  offset="0.8" style="stop-color:#237CAE"/>
						<stop  offset="0.8882" style="stop-color:#1C6B97"/>
						<stop  offset="0.966" style="stop-color:#13567C"/>
						<stop  offset="1" style="stop-color:#0E4B6D"/>
					</linearGradient>
					<path style="fill:url(#SVGID_4_);" d="M32.473,121.24v782.606c0,53.518,48.719,96.49,108.839,96.49h0.557V121.24H32.473z"/>
				</g>
				<g>
					
						<linearGradient id="SVGID_5_" gradientUnits="userSpaceOnUse" x1="-2930.8447" y1="-565.4357" x2="-2466.9888" y2="-1029.2917" gradientTransform="matrix(-1 0 0 1 -2133.0989 1728.0315)">
						<stop  offset="0" style="stop-color:#3099D5"/>
						<stop  offset="0.4077" style="stop-color:#2F97D3"/>
						<stop  offset="0.575" style="stop-color:#2D92CC"/>
						<stop  offset="0.6983" style="stop-color:#2989C0"/>
						<stop  offset="0.8" style="stop-color:#237CAE"/>
						<stop  offset="0.8882" style="stop-color:#1C6B97"/>
						<stop  offset="0.966" style="stop-color:#13567C"/>
						<stop  offset="1" style="stop-color:#0E4B6D"/>
					</linearGradient>
					<path style="fill:url(#SVGID_5_);" d="M141.869,1000.336h781.351c53.429,0,96.306-48.262,96.306-108.481v-1.095H141.869
						V1000.336z"/>
				</g>
			</g>
		</g>
	</g>
</g>
</svg>
